# xmcd
#
# Track frame offsets: 
#        150
#        17183
#        37090
#        56108
#        71995
#        89103
#        108745
#        123720
#        136737
#        153574
#        169868
#        187871
#        204057
#        222642
#        238115
#
# Disc length: 3380 seconds
#
# Revision: 1
# Processed by: cddbd v1.5.2PL0 Copyright (c) Steve Scherf et al.
# Submitted via: ExactAudioCopy v1.1
#
DISCID=e90d320f
DTITLE=Various Artist - Girls and Boys Cioé Compilation
DYEAR=1998
DGENRE=Pop
TTITLE0=Robbie Williams - Millenium
TTITLE1=Backstreet Boys - I'll Never Break Your Heart
TTITLE2=Spice Girls - Viva Forever
TTITLE3=Kavana - Special Kind Of Something
TTITLE4=Billie - Because We Want To
TTITLE5=Steps - One For Sorrow
TTITLE6=Cleopatra - Life Ain't Easy
TTITLE7=B'Witched - C'Est La Vie
TTITLE8=Thalia - Amor A La Mexicana
TTITLE9=Los Umbrellos - No Tengo Dinero
TTITLE10=Solid Harmonie - I Wanna Love You
TTITLE11=Jessica Folcker - Tell Me What You Like
TTITLE12=Aqua - Turn Back Time
TTITLE13=Aaron Carter - Crazy Little Party Girl
TTITLE14=911 - How Do You Want Me To Love You
EXTD=
EXTT0=
EXTT1=
EXTT2=
EXTT3=
EXTT4=
EXTT5=
EXTT6=
EXTT7=
EXTT8=
EXTT9=
EXTT10=
EXTT11=
EXTT12=
EXTT13=
EXTT14=
PLAYORDER=
